# xmcd CD database file
#
# Track frame offsets:
#	150
#	1950
#	82650
#	126000
#	167100
#	187950
#	248100
#
# Disc length: 3812 seconds
#
# Revision: 0
# Processed by: cddbd v1.5.2PL0 Copyright (c) Steve Scherf et al.
# Submitted via: CDex 1.51
#
DISCID=460ee207
DTITLE=David Hickey - Performs The Sacred Journey Home
DYEAR=2006
DGENRE=New Age
TTITLE0=Invocation
TTITLE1=Sacred Land
TTITLE2=Journey Through The Himalayas
TTITLE3=Entering Dharamsala
TTITLE4=Release
TTITLE5=Heart of Compassion
TTITLE6=Endless Knot
EXTD=YEAR: 2006
EXTT0=
EXTT1=
EXTT2=
EXTT3=
EXTT4=
EXTT5=
EXTT6=
PLAYORDER=
